# xmcd CD database file
#
# Track frame offsets:
#	150
#	19610
#	46143
#
# Disc length: 872 seconds
#
# Revision: 1
# Processed by: cddbd v1.5PL3 Copyright (c) Steve Scherf et al.
# Submitted via: CDex 1.50beta9
#
DISCID=17036603
DTITLE=華原 朋美 - tumblin' dice
DYEAR=1998
DGENRE=J-POP
TTITLE0=tumblin' dice(Original TK Mix)
TTITLE1=tumblin' dice(TK up date remix)
TTITLE2=tumblin' dice(Instrumental)
EXTD=Cat. No. WPD6-9191\nRelease Date:  1998-06-17 YEAR: 1998
EXTT0=
EXTT1=
EXTT2=
PLAYORDER=
